0
SECTION
2
HEADER
9
$ACADVER
1
AC1009
0
ENDSEC
0
SECTION
2
TABLES
0
TABLE
2
LTYPE
70
1
0
LTYPE
2
CONTINUOUS
70
0
3
Solid line
72
65
73
0
40
0.0
0
ENDTAB
0
TABLE
2
LAYER
70
12
0
LAYER
2
WALL
70
0
62
7
6
CONTINUOUS
0
LAYER
2
FIREPLACE
70
0
62
8
6
CONTINUOUS
0
LAYER
2
TV
70
0
62
7
6
CONTINUOUS
0
LAYER
2
SCREEN
70
0
62
8
6
CONTINUOUS
0
LAYER
2
VESA
70
0
62
2
6
CONTINUOUS
0
LAYER
2
MOUNT
70
0
62
8
6
CONTINUOUS
0
LAYER
2
BACKBOX
70
0
62
4
6
CONTINUOUS
0
LAYER
2
ELECTRICAL
70
0
62
3
6
CONTINUOUS
0
LAYER
2
LOWVOLT
70
0
62
30
6
CONTINUOUS
0
LAYER
2
DIMENSIONS
70
0
62
7
6
CONTINUOUS
0
LAYER
2
CENTERLINE
70
0
62
1
6
CONTINUOUS
0
LAYER
2
NOTES
70
0
62
7
6
CONTINUOUS
0
ENDTAB
0
ENDSEC
0
SECTION
2
ENTITIES
0
LINE
8
WALL
10
0.0000
20
0.0000
30
0.0
11
100.0000
21
0.0000
31
0.0
0
LINE
8
WALL
10
100.0000
20
0.0000
30
0.0
11
100.0000
21
96.0000
31
0.0
0
LINE
8
WALL
10
100.0000
20
96.0000
30
0.0
11
0.0000
21
96.0000
31
0.0
0
LINE
8
WALL
10
0.0000
20
96.0000
30
0.0
11
0.0000
21
0.0000
31
0.0
0
LINE
8
WALL
10
-6.0000
20
0.0000
30
0.0
11
106.0000
21
0.0000
31
0.0
0
LINE
8
WALL
10
-5.0000
20
0.0000
30
0.0
11
-6.5000
21
-1.5000
31
0.0
0
LINE
8
WALL
10
4.1667
20
0.0000
30
0.0
11
2.6667
21
-1.5000
31
0.0
0
LINE
8
WALL
10
13.3333
20
0.0000
30
0.0
11
11.8333
21
-1.5000
31
0.0
0
LINE
8
WALL
10
22.5000
20
0.0000
30
0.0
11
21.0000
21
-1.5000
31
0.0
0
LINE
8
WALL
10
31.6667
20
0.0000
30
0.0
11
30.1667
21
-1.5000
31
0.0
0
LINE
8
WALL
10
40.8333
20
0.0000
30
0.0
11
39.3333
21
-1.5000
31
0.0
0
LINE
8
WALL
10
50.0000
20
0.0000
30
0.0
11
48.5000
21
-1.5000
31
0.0
0
LINE
8
WALL
10
59.1667
20
0.0000
30
0.0
11
57.6667
21
-1.5000
31
0.0
0
LINE
8
WALL
10
68.3333
20
0.0000
30
0.0
11
66.8333
21
-1.5000
31
0.0
0
LINE
8
WALL
10
77.5000
20
0.0000
30
0.0
11
76.0000
21
-1.5000
31
0.0
0
LINE
8
WALL
10
86.6667
20
0.0000
30
0.0
11
85.1667
21
-1.5000
31
0.0
0
LINE
8
WALL
10
95.8333
20
0.0000
30
0.0
11
94.3333
21
-1.5000
31
0.0
0
LINE
8
WALL
10
105.0000
20
0.0000
30
0.0
11
103.5000
21
-1.5000
31
0.0
0
LINE
8
TV
10
12.3400
20
22.5750
30
0.0
11
87.6600
21
22.5750
31
0.0
0
LINE
8
TV
10
87.6600
20
22.5750
30
0.0
11
87.6600
21
65.4250
31
0.0
0
LINE
8
TV
10
87.6600
20
65.4250
30
0.0
11
12.3400
21
65.4250
31
0.0
0
LINE
8
TV
10
12.3400
20
65.4250
30
0.0
11
12.3400
21
22.5750
31
0.0
0
LINE
8
SCREEN
10
13.1400
20
23.3750
30
0.0
11
86.8600
21
23.3750
31
0.0
0
LINE
8
SCREEN
10
86.8600
20
23.3750
30
0.0
11
86.8600
21
64.6250
31
0.0
0
LINE
8
SCREEN
10
86.8600
20
64.6250
30
0.0
11
13.1400
21
64.6250
31
0.0
0
LINE
8
SCREEN
10
13.1400
20
64.6250
30
0.0
11
13.1400
21
23.3750
31
0.0
0
TEXT
8
TV
10
13.8400
20
62.2250
30
0.0
40
1.6000
1
SAMSUNG 85"
0
LINE
8
VESA
10
38.1890
20
36.1260
30
0.0
11
61.8110
21
36.1260
31
0.0
0
LINE
8
VESA
10
61.8110
20
36.1260
30
0.0
11
61.8110
21
51.8740
31
0.0
0
LINE
8
VESA
10
61.8110
20
51.8740
30
0.0
11
38.1890
21
51.8740
31
0.0
0
LINE
8
VESA
10
38.1890
20
51.8740
30
0.0
11
38.1890
21
36.1260
31
0.0
0
CIRCLE
8
VESA
10
38.1890
20
36.1260
30
0.0
40
0.2500
0
CIRCLE
8
VESA
10
61.8110
20
36.1260
30
0.0
40
0.2500
0
CIRCLE
8
VESA
10
38.1890
20
51.8740
30
0.0
40
0.2500
0
CIRCLE
8
VESA
10
61.8110
20
51.8740
30
0.0
40
0.2500
0
LINE
8
MOUNT
10
37.1890
20
42.2500
30
0.0
11
62.8110
21
42.2500
31
0.0
0
LINE
8
MOUNT
10
62.8110
20
42.2500
30
0.0
11
62.8110
21
45.7500
31
0.0
0
LINE
8
MOUNT
10
62.8110
20
45.7500
30
0.0
11
37.1890
21
45.7500
31
0.0
0
LINE
8
MOUNT
10
37.1890
20
45.7500
30
0.0
11
37.1890
21
42.2500
31
0.0
0
LINE
8
BACKBOX
10
64.8110
20
37.0000
30
0.0
11
84.8110
21
37.0000
31
0.0
0
LINE
8
BACKBOX
10
84.8110
20
37.0000
30
0.0
11
84.8110
21
51.0000
31
0.0
0
LINE
8
BACKBOX
10
84.8110
20
51.0000
30
0.0
11
64.8110
21
51.0000
31
0.0
0
LINE
8
BACKBOX
10
64.8110
20
51.0000
30
0.0
11
64.8110
21
37.0000
31
0.0
0
LINE
8
ELECTRICAL
10
67.8110
20
37.5000
30
0.0
11
71.8110
21
37.5000
31
0.0
0
LINE
8
ELECTRICAL
10
71.8110
20
37.5000
30
0.0
11
71.8110
21
41.5000
31
0.0
0
LINE
8
ELECTRICAL
10
71.8110
20
41.5000
30
0.0
11
67.8110
21
41.5000
31
0.0
0
LINE
8
ELECTRICAL
10
67.8110
20
41.5000
30
0.0
11
67.8110
21
37.5000
31
0.0
0
CIRCLE
8
ELECTRICAL
10
69.0110
20
39.5000
30
0.0
40
0.3500
0
CIRCLE
8
ELECTRICAL
10
70.6110
20
39.5000
30
0.0
40
0.3500
0
LINE
8
LOWVOLT
10
77.8110
20
37.5000
30
0.0
11
81.8110
21
37.5000
31
0.0
0
LINE
8
LOWVOLT
10
81.8110
20
37.5000
30
0.0
11
81.8110
21
41.5000
31
0.0
0
LINE
8
LOWVOLT
10
81.8110
20
41.5000
30
0.0
11
77.8110
21
41.5000
31
0.0
0
LINE
8
LOWVOLT
10
77.8110
20
41.5000
30
0.0
11
77.8110
21
37.5000
31
0.0
0
TEXT
8
LOWVOLT
10
78.7110
20
38.9000
30
0.0
40
1.2000
1
LV
0
LINE
8
DIMENSIONS
10
-6.0000
20
0.0000
30
0.0
11
-6.0000
21
44.0000
31
0.0
0
LINE
8
DIMENSIONS
10
-7.0000
20
0.0000
30
0.0
11
-5.0000
21
0.0000
31
0.0
0
LINE
8
DIMENSIONS
10
-7.0000
20
44.0000
30
0.0
11
-5.0000
21
44.0000
31
0.0
0
TEXT
8
DIMENSIONS
10
-18.0000
20
22.0000
30
0.0
40
2.5000
1
3'-8"
0
TEXT
8
DIMENSIONS
10
-19.5200
20
18.6000
30
0.0
40
1.2000
1
TO TV CENTER
0
LINE
8
CENTERLINE
10
9.3400
20
44.0000
30
0.0
11
12.3400
21
44.0000
31
0.0
0
LINE
8
CENTERLINE
10
87.6600
20
44.0000
30
0.0
11
90.6600
21
44.0000
31
0.0
0
LINE
8
DIMENSIONS
10
12.3400
20
69.4250
30
0.0
11
87.6600
21
69.4250
31
0.0
0
LINE
8
DIMENSIONS
10
12.3400
20
68.4250
30
0.0
11
12.3400
21
70.4250
31
0.0
0
LINE
8
DIMENSIONS
10
87.6600
20
68.4250
30
0.0
11
87.6600
21
70.4250
31
0.0
0
TEXT
8
DIMENSIONS
10
40.3200
20
70.9250
30
0.0
40
2.2000
1
6'-3 3/8" W
0
LINE
8
CENTERLINE
10
50.0000
20
67.4250
30
0.0
11
50.0000
21
69.9250
31
0.0
0
LINE
8
CENTERLINE
10
50.0000
20
70.7250
30
0.0
11
50.0000
21
71.1250
31
0.0
0
LINE
8
CENTERLINE
10
50.0000
20
71.9250
30
0.0
11
50.0000
21
74.4250
31
0.0
0
LINE
8
CENTERLINE
10
50.0000
20
75.2250
30
0.0
11
50.0000
21
75.6250
31
0.0
0
LINE
8
CENTERLINE
10
50.0000
20
76.4250
30
0.0
11
50.0000
21
78.9250
31
0.0
0
LINE
8
CENTERLINE
10
50.0000
20
79.7250
30
0.0
11
50.0000
21
80.1250
31
0.0
0
LINE
8
CENTERLINE
10
50.0000
20
80.9250
30
0.0
11
50.0000
21
83.4250
31
0.0
0
LINE
8
CENTERLINE
10
50.0000
20
84.2250
30
0.0
11
50.0000
21
84.6250
31
0.0
0
LINE
8
CENTERLINE
10
50.0000
20
85.4250
30
0.0
11
50.0000
21
87.9250
31
0.0
0
LINE
8
CENTERLINE
10
50.0000
20
88.7250
30
0.0
11
50.0000
21
89.1250
31
0.0
0
LINE
8
CENTERLINE
10
50.0000
20
89.9250
30
0.0
11
50.0000
21
92.4250
31
0.0
0
LINE
8
CENTERLINE
10
50.0000
20
93.2250
30
0.0
11
50.0000
21
93.6250
31
0.0
0
LINE
8
CENTERLINE
10
50.0000
20
94.4250
30
0.0
11
50.0000
21
96.0000
31
0.0
0
LINE
8
CENTERLINE
10
0.0000
20
101.0000
30
0.0
11
50.0000
21
101.0000
31
0.0
0
LINE
8
CENTERLINE
10
0.0000
20
100.0000
30
0.0
11
0.0000
21
102.0000
31
0.0
0
LINE
8
CENTERLINE
10
50.0000
20
100.0000
30
0.0
11
50.0000
21
102.0000
31
0.0
0
TEXT
8
CENTERLINE
10
12.6800
20
102.5000
30
0.0
40
2.2000
1
4'-2" TO TV CL
0
LINE
8
DIMENSIONS
10
0.0000
20
-8.0000
30
0.0
11
100.0000
21
-8.0000
31
0.0
0
LINE
8
DIMENSIONS
10
0.0000
20
-9.0000
30
0.0
11
0.0000
21
-7.0000
31
0.0
0
LINE
8
DIMENSIONS
10
100.0000
20
-9.0000
30
0.0
11
100.0000
21
-7.0000
31
0.0
0
TEXT
8
DIMENSIONS
10
40.0000
20
-12.5000
30
0.0
40
2.5000
1
8'-4" WALL
0
LINE
8
DIMENSIONS
10
106.0000
20
0.0000
30
0.0
11
106.0000
21
96.0000
31
0.0
0
LINE
8
DIMENSIONS
10
105.0000
20
0.0000
30
0.0
11
107.0000
21
0.0000
31
0.0
0
LINE
8
DIMENSIONS
10
105.0000
20
96.0000
30
0.0
11
107.0000
21
96.0000
31
0.0
0
TEXT
8
DIMENSIONS
10
108.0000
20
48.0000
30
0.0
40
2.5000
1
8'-0" H
0
TEXT
8
NOTES
10
124.0000
20
94.0000
30
0.0
40
2.2000
1
SAMSUNG 85" - FRONT ELEVATION
0
TEXT
8
NOTES
10
124.0000
20
89.6000
30
0.0
40
1.8000
1
TV: 6'-3 3/8" W x 3'-6 7/8" H
0
TEXT
8
NOTES
10
124.0000
20
85.6000
30
0.0
40
1.8000
1
CENTER 3'-8" AFF / BOTTOM 1'-10 5/8" AFF
0
TEXT
8
NOTES
10
124.0000
20
81.6000
30
0.0
40
1.8000
1
TV CL: 4'-2" FROM LEFT WALL EDGE
0
TEXT
8
NOTES
10
124.0000
20
77.6000
30
0.0
40
1.8000
1
VESA 600x400 MM - M8 SCREWS
0
TEXT
8
NOTES
10
124.0000
20
73.6000
30
0.0
40
1.8000
1
BOX: SnapAV Strong VersaBox Pro XL 14x20 (20x14x3.9 IN)
0
TEXT
8
NOTES
10
124.0000
20
69.6000
30
0.0
40
1.8000
1
PWR: 3'-3 1/2" AFF, 1'-7 3/4" RT OF CL
0
TEXT
8
NOTES
10
124.0000
20
65.6000
30
0.0
40
1.8000
1
LV: 3'-3 1/2" AFF, 2'-5 3/4" RT OF CL
0
TEXT
8
NOTES
10
124.0000
20
61.6000
30
0.0
40
1.8000
1
MOUNT: FLAT
0
TEXT
8
NOTES
10
0.0000
20
-18.0000
30
0.0
40
2.0000
1
ROUND TRIP TEST - R. CARTER
0
TEXT
8
NOTES
10
0.0000
20
-22.0000
30
0.0
40
1.5000
1
REV 01 - UNITS: INCHES - NOT TO SCALE, DIMENSIONS GOVERN
0
ENDSEC
0
EOF